HIERARCHY
ROOT hip
{
	OFFSET 0.000000 0.000000 0.000000 
	CHANNELS 6 Xposition Yposition Zposition Xrotation Zrotation Yrotation
	JOINT abdomen
	{
		OFFSET 0.000000 3.402643 0.000000 
		CHANNELS 3 Xrotation Zrotation Yrotation
		JOINT chest
		{
			OFFSET 0.000000 8.438565 -0.680529 
			CHANNELS 3 Xrotation Zrotation Yrotation
			JOINT neck
			{
				OFFSET 0.000000 10.207942 -0.272212 
				CHANNELS 3 Xrotation Zrotation Yrotation
				JOINT head
				{
					OFFSET 0.000000 3.130431 0.000000 
					CHANNELS 3 Xrotation Zrotation Yrotation
					End Site
					{
						OFFSET 0.000000 3.130435 0.000000 
					}
				}
			}
			JOINT lCollar
			{
				OFFSET 3.470700 6.669187 -0.816635 
				CHANNELS 3 Yrotation Zrotation Xrotation
				JOINT lShldr
				{
					OFFSET 3.198488 0.000000 0.000000 
					CHANNELS 3 Zrotation Yrotation Xrotation
					JOINT lForeArm
					{
						OFFSET 10.139888 0.000000 0.000000 
						CHANNELS 3 Yrotation Zrotation Xrotation
						JOINT lHand
						{
							OFFSET 8.370511 0.000000 0.000000 
							CHANNELS 3 Zrotation Yrotation Xrotation
							End Site
							{
								OFFSET 4.083176 0.000000 0.000000 
							}
						}
					}
				}
			}
			JOINT rCollar
			{
				OFFSET -3.470700 6.669187 -0.816635 
				CHANNELS 3 Yrotation Zrotation Xrotation
				JOINT rShldr
				{
					OFFSET -3.198488 0.000000 0.000000 
					CHANNELS 3 Zrotation Yrotation Xrotation
					JOINT rForeArm
					{
						OFFSET -10.139888 0.000000 0.000000 
						CHANNELS 3 Yrotation Zrotation Xrotation
						JOINT rHand
						{
							OFFSET -8.370511 0.000000 0.000000 
							CHANNELS 3 Zrotation Yrotation Xrotation
							End Site
							{
								OFFSET -4.083176 0.000000 0.000000 
							}
						}
					}
				}
			}
		}
	}
	JOINT lThigh
	{
		OFFSET 5.308129 -1.633274 1.361059 
		CHANNELS 3 Xrotation Zrotation Yrotation
		JOINT lShin
		{
			OFFSET -2.041588 -20.007561 0.000000 
			CHANNELS 3 Xrotation Zrotation Yrotation
			JOINT lFoot
			{
				OFFSET 0.000000 -19.190928 -1.224953 
				CHANNELS 3 Xrotation Yrotation Zrotation
				End Site
				{
					OFFSET 0.000000 -2.449906 4.627600 
				}
			}
		}
	}
	JOINT rThigh
	{
		OFFSET -5.308129 -1.633274 1.361059 
		CHANNELS 3 Xrotation Zrotation Yrotation
		JOINT rShin
		{
			OFFSET 2.041588 -20.007561 0.000000 
			CHANNELS 3 Xrotation Zrotation Yrotation
			JOINT rFoot
			{
				OFFSET 0.000000 -19.190928 -1.224953 
				CHANNELS 3 Xrotation Yrotation Zrotation
				End Site
				{
					OFFSET 0.000000 -2.449906 4.627600 
				}
			}
		}
	}
}
MOTION
Frames: 18
Frame Time: 0.033333
-22.688812 49.005295 -2.450779 -5.047877 0.994996 8.429168 0.000000 0.000000 0.000000 1.386427 -0.899090 0.761824 2.878812 0.243855 -2.773454 8.615775 -0.945874 -3.106013 -4.490794 -1.710679 1.753324 -73.589859 1.369366 33.316734 -105.585762 3.275731 -63.853703 15.082962 1.619763 -3.710061 7.722421 6.828161 1.519496 56.663612 22.653502 66.168434 98.978241 -15.768383 59.401466 2.955892 -9.358345 -3.750701 4.774062 0.068600 5.240621 12.873695 -5.250574 14.600037 -13.359579 -0.627899 5.422582 1.952585 -14.686488 -10.651041 7.550642 0.718669 -7.829111 0.136164 -0.029613 4.842987 
-22.713373 49.000950 -2.448468 -5.123962 1.101835 8.224318 0.000000 0.000000 0.000000 1.474373 -0.947315 0.874283 3.007169 0.224368 -2.656268 8.446296 -1.082452 -3.047438 -4.533836 -1.834710 1.821330 -73.410118 0.933998 33.071163 -105.814232 3.401932 -64.407936 16.247690 2.060504 -3.671256 7.773281 6.668525 1.626132 56.890190 22.605284 66.047607 99.612610 -16.121649 60.519737 3.753277 -9.193417 -3.787491 4.889803 0.000642 5.264661 12.884095 -5.289902 14.760982 -13.389037 -0.634360 5.430519 2.068785 -14.753002 -10.694286 7.429860 0.710601 -7.483654 0.159375 -0.004278 4.966976 
-22.765480 49.009769 -2.452326 -5.034453 1.005745 7.999378 0.000000 0.000000 0.000000 1.474625 -0.887676 0.986204 2.971966 0.156113 -2.402335 8.286482 -0.848454 -2.988676 -4.411311 -1.685018 1.831367 -73.422165 0.386273 33.061367 -106.230499 3.541559 -64.398865 17.224365 3.115105 -3.530563 7.742343 6.346604 1.634796 56.993740 22.788857 65.784233 99.788635 -16.142464 61.252426 3.090474 -8.870959 -3.742189 4.743867 0.127221 5.337521 13.042380 -5.311373 14.657638 -13.453459 -0.617342 5.473070 2.116601 -14.641198 -10.687543 7.005394 0.787337 -7.450511 0.381163 0.003546 4.987142 
-22.793282 49.021194 -2.411866 -5.003029 0.899709 7.842818 0.000000 0.000000 0.000000 1.435693 -0.826585 1.009867 2.990525 0.195168 -2.207018 8.257757 -0.702248 -2.861592 -4.288917 -1.570674 1.792454 -73.360252 0.078212 33.095806 -106.708603 3.666227 -64.882675 17.528091 3.542666 -3.475919 7.813090 6.449286 1.585358 56.755096 22.897310 65.942734 100.352249 -16.426098 61.588593 2.772954 -9.242261 -3.734900 4.871814 0.234400 5.399484 12.750631 -5.312015 14.907266 -13.346782 -0.617972 5.307459 2.314146 -14.512088 -10.717661 6.501110 0.875556 -7.518991 0.644458 -0.005634 4.937693 
-22.838495 49.025997 -2.383630 -5.010191 0.783746 7.774176 0.000000 0.000000 0.000000 1.435768 -0.804384 1.037200 2.910965 0.253748 -2.021465 8.682627 -0.634043 -2.734640 -4.282328 -1.454697 1.811940 -73.347092 -0.265064 33.483147 -107.068359 3.883070 -65.165405 18.249380 3.873800 -3.427704 7.881454 6.413458 1.594716 56.745251 23.273741 66.144928 100.273911 -16.435358 62.153381 1.153556 -9.331285 -3.657650 4.940019 0.410427 5.522371 12.698018 -5.299272 14.785877 -13.355140 -0.616841 5.176983 2.341700 -14.426907 -10.771275 6.489283 1.051356 -7.219365 0.531629 -0.009730 4.781642 
-22.881901 49.059921 -2.348168 -4.975087 0.677201 7.842399 0.000000 0.000000 0.000000 1.426209 -0.757224 1.121032 2.871633 0.273282 -1.933572 8.719260 -0.585275 -2.724766 -4.252369 -1.482329 1.802276 -73.077286 -0.788028 34.094204 -107.235046 4.035749 -65.774345 18.903563 3.749458 -3.450068 7.783520 6.420516 1.595089 56.705585 23.732857 66.585754 100.220825 -16.625782 63.290787 0.290030 -9.531953 -3.611896 4.949966 0.527412 5.564027 12.612898 -5.242795 14.721158 -13.298116 -0.614974 5.297503 3.140769 -14.151490 -10.813665 4.990636 1.068731 -7.379058 1.189206 0.024942 4.846468 
-22.894966 49.060658 -2.296008 -5.104904 0.793199 7.891486 0.000000 0.000000 0.000000 1.533550 -0.806754 1.115897 2.895278 0.156166 -1.874993 8.636410 -0.487733 -2.714995 -4.252446 -1.713653 1.890157 -72.940819 -1.198387 34.140141 -107.743279 4.150353 -66.395889 19.507069 3.943482 -3.415944 7.716338 5.928068 1.720499 57.002186 24.302635 66.705620 99.658470 -16.370922 63.235031 -1.425079 -9.798071 -3.523942 5.149755 0.351720 5.374197 12.544683 -5.086643 14.790932 -13.271077 -0.598141 5.240295 3.152287 -14.313062 -10.899307 5.466256 1.071592 -7.209621 0.828567 0.021474 4.809367 
-22.933943 49.055161 -2.276710 -5.009439 0.628606 7.988868 0.000000 0.000000 0.000000 1.484735 -0.797032 1.114979 2.794114 0.273302 -1.806620 8.764486 -0.536562 -2.588051 -4.099208 -1.335892 1.870786 -73.310699 -1.563331 34.585396 -107.838409 4.226768 -66.144669 19.971323 4.313513 -3.351261 7.889308 6.227879 1.663071 56.681908 24.541306 66.539459 99.299576 -16.156179 62.998142 -2.425257 -10.000188 -3.460317 5.056363 0.556961 5.422645 12.553026 -4.997715 14.564717 -13.277035 -0.590474 4.982144 3.075240 -14.179003 -10.851575 5.467174 1.198975 -7.244567 0.794761 -0.008128 4.715626 
-22.980179 49.059166 -2.246454 -4.944615 0.531859 8.017956 0.000000 0.000000 0.000000 1.455523 -0.810963 1.175149 2.812247 0.341650 -1.679716 8.594039 -0.682953 -2.480758 -4.188904 -1.306626 1.831625 -73.261513 -1.541865 34.506905 -108.407242 4.377542 -65.567451 19.386312 1.529119 -3.779054 7.999516 6.312040 1.613498 56.640179 24.848969 66.447609 99.024040 -16.084085 62.456276 -2.679478 -10.252424 -3.450614 4.889131 0.703369 5.528045 12.799545 -5.009487 14.445642 -13.392051 -0.591457 5.026664 2.791887 -14.070930 -10.705606 5.877396 1.198760 -7.448793 0.599390 0.001412 4.513773 
-22.996954 49.058964 -2.223036 -5.096921 0.483368 8.135135 0.000000 0.000000 0.000000 1.611799 -0.764190 1.151117 3.073489 0.429507 -1.660183 8.263773 -1.258738 -2.315182 -4.490403 -1.551812 1.967399 -73.010284 -1.517325 34.414627 -108.571190 4.435515 -66.020180 19.388414 3.390132 -3.493817 7.987531 6.167826 1.769448 56.871872 25.303381 66.053413 98.650574 -15.864683 62.415916 -3.696068 -10.633512 -3.379748 5.056095 0.810757 5.578600 12.817823 -4.920743 14.238295 -13.399036 -0.563314 4.877457 3.649772 -13.871918 -10.804958 4.679134 1.185843 -7.498615 1.060450 0.040373 4.864637 
-23.009453 49.069614 -2.209806 -5.022323 0.386619 8.213099 0.000000 0.000000 0.000000 1.631293 -0.738699 1.109475 2.949255 0.361197 -1.542938 8.489570 -1.083159 -2.236851 -4.567620 -1.565808 1.986650 -73.019699 -1.364292 34.418194 -108.996834 4.521390 -65.592262 18.029774 1.612840 -3.747304 7.874646 6.340222 1.769900 56.851749 25.842283 65.881310 98.597984 -15.747438 60.754818 -3.450068 -10.675598 -3.391799 4.939604 0.956938 5.690369 12.855008 -4.988922 14.276963 -13.432457 -0.559211 4.967485 3.747996 -13.795485 -10.911451 4.422579 1.326031 -7.625441 1.208306 0.020771 4.751023 
-22.999472 49.069843 -2.193041 -5.107285 0.405930 8.232698 0.000000 0.000000 0.000000 1.728837 -0.826199 1.117731 3.133189 0.458844 -1.416048 8.394398 -1.268741 -2.022069 -4.518896 -1.502724 2.074363 -73.216141 -1.163942 34.369728 -108.886887 4.567725 -65.018677 17.681780 1.252218 -3.793190 7.818571 6.575489 1.858763 57.162640 26.274328 65.407013 98.311554 -15.640883 60.526875 -3.241706 -10.289877 -3.418539 4.990702 0.917202 5.663315 12.982537 -4.972669 14.102271 -13.515965 -0.597272 5.090804 3.942322 -13.752839 -10.937847 4.143896 1.283166 -7.825849 1.391833 0.048178 4.820480 
-22.995226 49.090107 -2.168608 -4.993714 0.376851 8.320516 0.000000 0.000000 0.000000 1.699489 -0.873892 1.132040 3.007093 0.488169 -1.230507 8.829859 -1.259105 -1.856094 -4.529866 -1.482016 2.054868 -73.436928 -0.995304 33.994976 -108.798920 4.484907 -64.619362 17.146641 1.055519 -3.813611 7.848203 6.632329 1.839408 57.185848 26.414536 64.880287 98.105354 -15.525995 59.548752 -2.764437 -9.866242 -3.448600 5.057256 0.889117 5.616693 12.612730 -4.930161 14.264223 -13.331719 -0.589899 5.048584 4.469788 -13.608566 -10.911785 3.087506 1.184326 -7.919213 1.777002 0.049853 4.991302 
-22.972441 49.086113 -2.143134 -5.050536 0.454119 8.349887 0.000000 0.000000 0.000000 1.699181 -1.085944 1.171851 3.302849 0.839662 -1.191421 8.747584 -1.659508 -1.602305 -4.547558 -0.985064 2.064116 -73.990219 -0.574945 33.561790 -108.653679 4.444787 -64.729492 16.681047 1.285981 -3.774107 7.975368 6.967196 1.830333 57.367714 26.304729 65.358757 97.493774 -14.847643 52.554089 -5.488163 -10.382467 -3.269754 5.108939 0.800517 5.574252 12.658981 -4.912768 14.447042 -13.379572 -0.610935 5.092960 4.559545 -13.710541 -11.026785 3.201683 1.208498 -7.805998 1.680044 0.041800 5.041944 
-22.965246 49.087269 -2.126524 -4.806337 0.318794 8.418110 0.000000 0.000000 0.000000 1.513725 -1.063743 1.198999 3.122979 0.712793 -0.947314 9.589923 -1.083586 -1.553195 -4.555350 -1.126834 1.879172 -73.808594 -0.211157 33.204300 -108.633278 4.413971 -65.077286 15.688202 1.053662 -3.781871 8.100770 7.138335 1.635534 57.157253 26.056852 64.032196 97.558945 -14.524712 51.086849 -4.380226 -10.189508 -3.344189 4.909836 0.908368 5.617975 12.612231 -4.959185 14.290627 -13.379715 -0.593143 5.069324 4.334798 -13.592522 -10.902341 3.106778 1.232813 -8.210675 1.792384 0.067902 4.976792 
-22.953056 49.092819 -2.095589 -4.793056 0.405676 8.476832 0.000000 0.000000 0.000000 1.523831 -0.958250 1.277328 3.190446 0.244123 -0.683588 9.616209 -0.966438 -1.562772 -4.655748 -2.279870 1.841173 -72.768494 -0.271162 32.626957 -108.986778 4.341553 -64.988434 15.027150 1.132758 -3.760832 8.201969 6.493764 1.682038 57.385021 26.021046 62.559956 97.569939 -14.086937 48.611786 -3.349077 -10.022242 -3.408796 5.016935 0.800889 5.550408 12.463883 -4.928592 14.257022 -13.373035 -0.582927 5.162010 4.344739 -13.661653 -10.890594 3.191319 1.149506 -8.285808 1.718808 0.071590 5.010509 
-22.901525 49.076988 -2.073965 -4.645961 0.337924 8.633008 0.000000 0.000000 0.000000 1.387230 -0.971263 1.347219 3.063945 0.283192 -0.498041 10.762180 -0.761456 -1.504163 -4.605050 -2.161218 1.724212 -72.830002 -0.205247 32.468998 -108.933640 4.300965 -63.961742 14.501506 1.534256 -3.698457 8.169008 6.378086 1.564791 57.804142 25.924671 61.887547 97.600960 -13.759693 44.937813 -3.558785 -12.162831 -3.366487 4.721334 0.790921 5.439740 12.702035 -4.854402 14.391149 -13.488482 -0.602259 5.065993 4.491171 -13.661764 -10.948229 2.804171 1.183861 -8.255550 1.811490 0.056462 5.200703 
-22.887251 49.092018 -2.046943 -4.764576 0.260603 8.750132 0.000000 0.000000 0.000000 1.475254 -0.938420 1.383357 3.202251 0.244139 -0.205076 11.196234 -0.624830 -1.338024 -4.517350 -2.388762 1.792904 -72.612595 -0.236314 32.199528 -108.838501 4.210406 -63.284290 13.637600 1.276514 -3.719880 8.263543 6.576312 1.632664 57.546463 25.998730 61.512562 97.834282 -13.696598 41.316986 -4.441300 -12.085380 -3.298080 4.914352 0.829459 5.461499 12.536234 -4.786116 14.323771 -13.400352 -0.596569 5.056930 4.979033 -13.523964 -10.999002 2.151149 1.192745 -8.493003 2.129732 0.083153 5.121697 
